HIERARCHY
ROOT Hips
{
	OFFSET 0.000000 0.000000 0.000000
	CHANNELS 6 Xposition Yposition Zposition Zrotation Yrotation Xrotation 
	JOINT LeftUpLeg_virtual
	{
		OFFSET 0.000000 0.000000 0.000000
		CHANNELS 3 Zrotation Yrotation Xrotation
		JOINT LeftUpLeg
		{
			OFFSET 10.205400 -3.823500 0.155100
			CHANNELS 3 Zrotation Yrotation Xrotation
			JOINT LeftLeg
			{
				OFFSET 0.708757 -12.982077 0.567790
				CHANNELS 3 Zrotation Yrotation Xrotation
				JOINT LeftFoot
				{
					OFFSET -0.708756 -10.717838 -2.184338
					CHANNELS 3 Zrotation Yrotation Xrotation
					JOINT LeftToeBase
					{
						OFFSET 0.108149 -7.191104 7.560241
						CHANNELS 3 Zrotation Yrotation Xrotation
						End Site
						{
							OFFSET 0.000000 0.000000 0.000000
						}
					}
				}
			}
		}
	}
	JOINT RightUpLeg_virtual
	{
		OFFSET 0.000000 0.000000 0.000000
		CHANNELS 3 Zrotation Yrotation Xrotation
		JOINT RightUpLeg
		{
			OFFSET -10.205400 -3.823500 0.005500
			CHANNELS 3 Zrotation Yrotation Xrotation
			JOINT RightLeg
			{
				OFFSET -0.708756 -12.982134 0.610632
				CHANNELS 3 Zrotation Yrotation Xrotation
				JOINT RightFoot
				{
					OFFSET 0.708754 -10.717769 -1.945823
					CHANNELS 3 Zrotation Yrotation Xrotation
					JOINT RightToeBase
					{
						OFFSET -0.108140 -7.191069 7.372968
						CHANNELS 3 Zrotation Yrotation Xrotation
						End Site
						{
							OFFSET 0.000000 0.000000 0.000000
						}
					}
				}
			}
		}
	}
	JOINT Spine_virtual
	{
		OFFSET 0.000000 0.000000 0.000000
		CHANNELS 3 Zrotation Yrotation Xrotation
		JOINT Spine
		{
			OFFSET 0.000000 6.876099 0.125700
			CHANNELS 3 Zrotation Yrotation Xrotation
			JOINT Spine1
			{
				OFFSET 0.000000 8.022060 0.146608
				CHANNELS 3 Zrotation Yrotation Xrotation
				JOINT Spine2
				{
					OFFSET 0.000000 9.168068 0.167552
					CHANNELS 3 Zrotation Yrotation Xrotation
					JOINT Neck_virtual
					{
						OFFSET 0.000000 0.000000 0.000000
						CHANNELS 3 Zrotation Yrotation Xrotation
						JOINT Neck
						{
							OFFSET 0.000000 10.314075 0.188496
							CHANNELS 3 Zrotation Yrotation Xrotation
							JOINT Head
							{
								OFFSET 0.000000 7.643700 -2.377400
								CHANNELS 3 Zrotation Yrotation Xrotation
								End Site
								{
									OFFSET 0.000000 0.000000 0.000000
								}
							}
						}
					}
					JOINT LeftShoulder_virtual
					{
						OFFSET 0.000000 0.000000 0.000000
						CHANNELS 3 Zrotation Yrotation Xrotation
						JOINT LeftShoulder
						{
							OFFSET 4.392200 8.824978 0.174984
							CHANNELS 3 Zrotation Yrotation Xrotation
							JOINT LeftArm
							{
								OFFSET 8.771219 -2.981674 -0.026999
								CHANNELS 3 Zrotation Yrotation Xrotation
								JOINT LeftForeArm
								{
									OFFSET 8.512804 0.000000 -0.000000
									CHANNELS 3 Zrotation Yrotation Xrotation
									JOINT LeftHand
									{
										OFFSET 18.484802 0.000000 -0.000000
										CHANNELS 3 Zrotation Yrotation Xrotation
										End Site
										{
											OFFSET 0.000000 0.000000 0.000000
										}
									}
								}
							}
						}
					}
					JOINT RightShoulder_virtual
					{
						OFFSET 0.000000 0.000000 0.000000
						CHANNELS 3 Zrotation Yrotation Xrotation
						JOINT RightShoulder
						{
							OFFSET -4.392200 8.824993 0.141379
							CHANNELS 3 Zrotation Yrotation Xrotation
							JOINT RightArm
							{
								OFFSET -8.771282 -2.981682 -0.094208
								CHANNELS 3 Zrotation Yrotation Xrotation
								JOINT RightForeArm
								{
									OFFSET -8.494598 0.000000 0.000000
									CHANNELS 3 Zrotation Yrotation Xrotation
									JOINT RightHand
									{
										OFFSET -18.483803 0.000000 0.000001
										CHANNELS 3 Zrotation Yrotation Xrotation
										End Site
										{
											OFFSET 0.000000 0.000000 0.000000
										}
									}
								}
							}
						}
					}
				}
			}
		}
	}
}
MOTION
Frames: 14
Frame Time: 0.033333
5.355160 34.376862 -15.105177 179.603526 -1.769885 -179.367434 -0.663360 -2.478893 10.779407 -5.881596 -3.246774 -28.349882 18.483595 1.109356 21.467156 -10.067089 1.811793 0.258651 0.000000 0.000000 0.000000 1.711101 0.320975 8.610897 6.513247 9.458852 -25.874042 -7.140731 -2.618230 19.461997 4.050437 0.310445 6.616722 0.000000 0.000000 0.000000 1.745430 1.053361 -6.675216 -2.572909 -1.698729 -6.828689 -0.484180 -2.031601 11.111687 0.074356 0.034315 0.182025 -0.917337 -0.053508 13.468931 0.995427 -3.340881 15.774026 0.000000 0.000000 0.000000 0.299887 0.661497 10.437801 -16.671874 -12.009493 2.314705 -50.699620 20.975730 8.759254 -1.703568 -34.561181 1.044936 0.000000 0.000000 0.000000 -2.971664 1.625920 10.229606 24.368261 2.466825 0.702896 46.596322 -18.797166 15.138243 -5.406625 29.167128 -3.316050 0.000000 0.000000 0.000000 
5.370202 34.384804 -15.020724 179.457606 -2.004371 -179.145207 -0.458160 -2.275051 11.170417 -5.721467 -3.374286 -28.070592 18.306077 0.874802 21.533041 -10.600786 1.419164 0.278020 0.000000 0.000000 0.000000 1.702958 0.531756 8.625805 7.014754 8.767801 -26.006666 -7.258270 -3.306188 19.864977 3.142592 -0.663386 6.958702 0.000000 0.000000 0.000000 1.721777 1.117665 -6.817336 -2.612523 -1.819978 -6.906239 -0.603348 -2.195362 11.193069 0.066417 0.033992 0.151344 -0.891936 -0.173603 13.522177 1.005226 -3.217107 15.620373 0.000000 0.000000 0.000000 0.254483 0.779239 10.503942 -16.709692 -12.057697 2.345598 -50.565844 20.716356 9.136409 -1.739988 -34.544498 1.087821 0.000000 0.000000 0.000000 -2.915383 1.768100 10.241407 24.258419 2.560126 0.693995 46.500204 -18.646736 15.233697 -5.365765 29.221540 -3.259266 0.000000 0.000000 0.000000 
5.383560 34.379089 -14.908674 179.394946 -2.258734 -179.178197 -0.456847 -2.224709 11.082792 -5.497425 -3.581449 -28.169558 18.136768 1.057094 21.395689 -10.878426 1.296148 0.263769 0.000000 0.000000 0.000000 1.696543 0.643809 8.635364 7.041665 8.546061 -26.117593 -7.325174 -3.244004 20.042538 2.965073 -0.680513 7.094117 0.000000 0.000000 0.000000 1.670185 1.247743 -6.796101 -2.582471 -1.751963 -6.862167 -0.593875 -2.213617 11.380878 0.082257 0.081879 0.066270 -0.982660 -0.116836 13.515092 0.757931 -3.199358 15.756536 0.000000 0.000000 0.000000 0.294308 0.649090 10.409102 -16.763564 -12.061724 2.389782 -50.227364 20.317031 9.675285 -1.783632 -34.638109 1.166879 0.000000 0.000000 0.000000 -2.963618 1.687260 10.200170 24.064122 2.757358 0.710901 46.395320 -18.560602 15.477151 -5.397409 29.241949 -3.360719 0.000000 0.000000 0.000000 
5.398882 34.371761 -14.786695 179.361533 -2.799042 -179.290212 -0.428663 -2.117604 10.926103 -5.155773 -3.881614 -28.217972 17.845683 1.247367 21.207495 -11.287346 1.104603 0.285947 0.000000 0.000000 0.000000 1.576541 0.871741 8.696491 7.318963 7.864534 -26.149352 -7.249662 -3.122110 20.212280 2.715418 -1.261774 7.244872 0.000000 0.000000 0.000000 1.683035 1.399758 -6.470866 -2.554195 -1.637947 -6.847181 -0.606646 -2.231972 11.099679 0.050875 0.111629 0.131816 -0.968167 -0.189221 13.583992 0.557515 -3.093532 16.077785 0.000000 0.000000 0.000000 0.322163 0.546304 10.470948 -16.832187 -12.009704 2.428110 -49.721305 19.887938 10.298814 -1.891573 -34.790125 1.338895 0.000000 0.000000 0.000000 -2.973020 1.600317 10.234436 24.007961 2.963781 0.773393 46.276120 -18.544315 15.569838 -5.345290 29.430985 -3.333890 0.000000 0.000000 0.000000 
5.401050 34.372742 -14.650610 179.281565 -3.605928 -179.349839 -0.470715 -2.010563 10.718863 -4.709527 -4.285430 -28.230902 17.425124 1.476594 20.879451 -11.807824 0.857208 0.265519 0.000000 0.000000 0.000000 1.465591 1.251542 8.764865 7.724077 6.814397 -26.189595 -7.384374 -2.982609 20.302456 2.475119 -1.571807 7.365370 0.000000 0.000000 0.000000 1.632914 1.456057 -6.275665 -2.522068 -1.420701 -6.847687 -0.640257 -2.339472 11.117692 0.069996 0.074966 0.183134 -0.955629 -0.324914 13.401451 0.468778 -2.868665 16.235443 0.000000 0.000000 0.000000 0.314975 0.612030 10.357807 -16.913116 -11.869239 2.406955 -49.345364 19.505080 10.688630 -2.106076 -34.836253 1.556814 0.000000 0.000000 0.000000 -3.069406 1.612627 10.116933 23.912668 3.252793 0.870316 46.293895 -18.743050 15.562813 -5.355966 29.630658 -3.486260 0.000000 0.000000 0.000000 
5.384127 34.377693 -14.507523 179.433072 -4.949164 -179.475009 -0.477937 -1.956912 10.556888 -4.170891 -4.727639 -28.243408 17.032479 1.750365 20.504450 -12.962996 0.439587 0.145671 0.000000 0.000000 0.000000 1.589878 1.488808 8.924789 8.036289 5.821306 -26.187685 -7.858143 -2.857388 20.282930 2.520101 -1.553363 7.392274 0.000000 0.000000 0.000000 1.761059 1.625302 -5.989363 -2.407970 -1.410476 -6.905974 -0.750620 -2.376131 11.084916 0.026811 0.109580 0.090173 -1.031793 -0.419172 13.400856 0.188878 -2.783209 16.700729 0.000000 0.000000 0.000000 0.376583 0.401014 10.271869 -17.088430 -11.556933 2.488227 -48.984471 19.007933 11.196629 -2.118833 -34.811548 1.611998 0.000000 0.000000 0.000000 -3.105160 1.418972 10.091482 23.962720 3.431740 1.021738 46.340515 -19.218202 15.509304 -5.362173 29.920631 -3.546537 0.000000 0.000000 0.000000 
5.331941 34.400612 -14.363362 179.617542 -6.548291 -179.567313 -0.518587 -2.137217 10.449575 -3.592914 -5.332068 -28.457676 16.229677 2.018232 19.786727 -13.173563 0.336179 0.278689 0.000000 0.000000 0.000000 1.813408 1.559287 9.105465 7.869568 5.153841 -26.352685 -7.947822 -3.030595 20.494645 2.458809 -1.654114 7.198878 0.000000 0.000000 0.000000 1.945640 1.455083 -5.737518 -2.228901 -1.200160 -7.035583 -0.822332 -2.422850 11.109899 0.029346 0.126727 0.047995 -1.156137 -0.491385 13.308974 0.006847 -2.624394 17.065668 0.000000 0.000000 0.000000 0.216691 0.275404 10.211129 -17.364520 -11.226434 2.556823 -48.618198 18.410160 11.724009 -2.157374 -34.682167 1.610078 0.000000 0.000000 0.000000 -3.246600 1.359032 9.971928 24.024555 3.643642 1.201399 46.306958 -19.898049 15.426266 -5.524858 30.297766 -3.764536 0.000000 0.000000 0.000000 
5.221379 34.408092 -14.259848 179.718697 -8.653873 -179.633893 -0.627098 -2.639818 10.564485 -2.949383 -5.863419 -28.842916 15.267776 2.305413 19.092370 -13.405489 0.268479 0.292788 0.000000 0.000000 0.000000 1.904001 1.274630 9.334958 7.513425 4.301393 -26.513797 -7.907045 -3.246459 20.867109 2.474625 -1.759421 6.903789 0.000000 0.000000 0.000000 2.017989 1.440817 -5.539729 -1.982847 -1.035780 -7.192772 -0.937248 -2.562665 11.164640 -0.007566 0.046875 0.039574 -1.353994 -0.516235 13.286371 -0.224416 -2.529678 17.585261 0.000000 0.000000 0.000000 0.056786 0.243082 10.064907 -17.567185 -10.973744 2.538455 -48.111876 17.679574 12.590808 -2.263285 -34.767169 1.775269 0.000000 0.000000 0.000000 -3.437006 1.282542 9.856357 24.110390 3.808413 1.425641 46.309823 -20.840845 15.183598 -5.654084 30.532329 -3.884674 0.000000 0.000000 0.000000 
5.070672 34.396835 -14.208432 -179.997970 -11.152812 -179.710828 -0.568665 -3.817736 11.062632 -2.336114 -6.103919 -29.470733 13.878264 2.702206 18.377589 -13.365455 0.148447 0.116668 0.000000 0.000000 0.000000 2.086695 0.667053 9.625298 7.422020 3.046681 -26.647683 -7.840755 -3.335209 21.309032 2.445724 -1.895286 6.418942 0.000000 0.000000 0.000000 2.338847 1.094204 -5.371578 -1.785550 -0.777501 -7.342175 -1.082382 -2.598505 11.153551 -0.031455 0.019250 0.055051 -1.489871 -0.577440 13.248223 -0.320415 -2.403753 18.067324 0.000000 0.000000 0.000000 -0.092155 0.167799 9.912569 -17.683715 -10.706974 2.573994 -47.516605 16.994281 13.931465 -2.249908 -35.235911 1.860991 0.000000 0.000000 0.000000 -3.602263 1.218963 9.773035 24.159848 3.907254 1.707861 46.159289 -21.857352 14.770906 -5.782056 30.662072 -3.976747 0.000000 0.000000 0.000000 
4.882546 34.373569 -14.182933 179.839550 -13.742417 -179.702769 -0.637223 -4.108013 11.068824 -2.872968 -6.400460 -30.335653 14.406254 2.541575 19.890665 -13.219959 0.064857 -0.011860 0.000000 0.000000 0.000000 1.812618 -0.132674 9.890663 7.147380 1.715058 -26.809959 -7.436541 -3.449795 21.910789 2.339743 -2.155188 5.849479 0.000000 0.000000 0.000000 2.382001 0.577934 -5.239731 -1.670540 -0.470870 -7.453189 -1.235745 -2.563057 11.141409 0.006902 0.019509 0.063632 -1.645362 -0.534041 13.197432 -0.367854 -2.316124 18.514568 0.000000 0.000000 0.000000 -0.221654 0.224645 9.770970 -17.712149 -10.467179 2.565651 -46.743813 16.506785 15.599131 -2.354099 -36.004803 2.187531 0.000000 0.000000 0.000000 -3.769324 1.236188 9.602872 24.117750 4.051561 1.948301 46.032944 -22.709961 13.912227 -5.954059 30.779527 -4.073608 0.000000 0.000000 0.000000 
4.672361 34.348343 -14.150515 179.797394 -16.605226 -179.718956 -0.402664 -4.423760 11.106235 -3.910145 -6.424522 -31.263142 15.189516 2.394917 21.408637 -12.885078 0.118688 0.263563 0.000000 0.000000 0.000000 1.676777 -1.106383 10.150015 6.800380 0.388301 -26.896612 -7.067388 -3.498220 22.546164 2.311278 -2.290785 5.216409 0.000000 0.000000 0.000000 2.527253 -0.109580 -5.025529 -1.545575 -0.108026 -7.489068 -1.377349 -2.480998 11.062216 -0.018510 -0.010903 0.063528 -1.704282 -0.308214 13.016332 -0.323197 -2.245874 18.658683 0.000000 0.000000 0.000000 -0.305954 0.324067 9.549475 -17.644146 -10.138432 2.655561 -45.947325 16.221457 17.195823 -2.430050 -37.072945 2.555632 0.000000 0.000000 0.000000 -3.868729 1.361654 9.433991 24.053052 4.173129 2.164770 45.897372 -23.078403 12.502053 -6.128543 30.815949 -4.150242 0.000000 0.000000 0.000000 
4.446674 34.334179 -14.063421 179.544131 -19.716091 -179.651338 -0.353965 -4.912924 11.164201 -4.994002 -6.090347 -32.216950 15.138660 2.372360 22.158196 -11.380123 1.136607 0.938441 0.000000 0.000000 0.000000 1.347751 -2.141621 10.351542 6.295660 -0.711422 -26.893407 -6.791494 -3.587334 23.074339 2.300963 -2.335986 4.588076 0.000000 0.000000 0.000000 2.594711 -0.765345 -4.746154 -1.512454 0.327391 -7.397424 -1.478860 -2.307087 10.938953 0.083944 0.022817 0.051978 -1.855142 -0.290107 12.902187 -0.357627 -2.299993 18.754441 0.000000 0.000000 0.000000 -0.390129 0.394694 9.340532 -17.603303 -10.010544 2.636944 -45.175916 16.101577 18.701736 -2.292074 -37.904422 2.814908 0.000000 0.000000 0.000000 -3.979197 1.432262 9.196106 23.919575 4.349704 2.349058 45.978371 -22.589770 10.617640 -6.245851 30.764757 -4.169272 0.000000 0.000000 0.000000 
4.239934 34.348869 -13.876747 179.748627 -23.070863 -179.725582 -0.099814 -5.585821 11.096083 -5.571255 -6.048865 -33.068945 14.784515 2.607346 22.131100 -10.181651 1.844774 2.095728 0.000000 0.000000 0.000000 1.655206 -3.166007 10.435394 5.423046 -1.635944 -26.838487 -6.483089 -3.679520 23.572614 2.088788 -2.458176 4.049100 0.000000 0.000000 0.000000 2.940349 -1.407937 -4.275724 -1.407567 0.771207 -7.196945 -1.507255 -2.127294 10.717351 -0.002786 0.008716 0.074271 -1.789149 -0.202918 12.494814 -0.116841 -2.223291 18.392496 0.000000 0.000000 0.000000 -0.398975 0.507598 9.077090 -17.508357 -10.076152 2.590081 -44.687961 16.084699 19.452889 -2.256117 -38.209335 3.215433 0.000000 0.000000 0.000000 -3.950560 1.531309 8.839621 23.867696 4.576969 2.507878 46.234083 -21.026876 8.540969 -6.430485 30.722741 -4.255000 0.000000 0.000000 0.000000 
4.042910 34.379955 -13.606319 179.919586 -26.507968 -179.743340 -0.214881 -6.348466 10.899388 -5.626409 -6.502085 -33.793980 14.258597 3.073368 21.360293 -9.949409 1.817976 3.705844 0.000000 0.000000 0.000000 2.007561 -4.152866 10.418639 4.392665 -2.277485 -26.739098 -6.330266 -3.766363 23.950764 2.028312 -2.333978 3.660430 0.000000 0.000000 0.000000 3.212486 -2.047664 -3.723189 -1.267605 1.170668 -6.891379 -1.486100 -1.988705 10.405145 0.011771 -0.065056 0.069304 -1.864053 0.055169 12.086547 -0.004201 -2.277459 17.833597 0.000000 0.000000 0.000000 -0.480502 0.689230 8.792025 -17.504802 -10.226025 2.607416 -44.495786 16.193897 19.583868 -2.134134 -37.890478 3.583475 0.000000 0.000000 0.000000 -4.029486 1.717364 8.423502 23.774049 5.025689 2.567464 46.797407 -18.194270 6.557967 -6.606741 30.778246 -4.375324 0.000000 0.000000 0.000000 
